<svg width="27" height="26" viewBox="0 0 27 26" fill="none" xmlns="http://www.w3.org/2000/svg">
<path d="M17.2927 6.91724H9.54348C8.3066 6.91724 7.30029 7.92354 7.30029 9.16042V16.9096C7.30029 18.1465 8.3066 19.1531 9.54348 19.1531H17.2927C18.5296 19.1531 19.5361 18.1468 19.5361 16.9096V9.16042C19.5361 7.92354 18.5298 6.91724 17.2927 6.91724ZM13.4181 17.0631C11.1972 17.0631 9.39025 15.2562 9.39025 13.035C9.39025 10.8141 11.1972 9.00719 13.4181 9.00719C15.6392 9.00719 17.4462 10.8141 17.4462 13.035C17.4462 15.2559 15.639 17.0631 13.4181 17.0631ZM17.5757 9.83998C17.0499 9.83998 16.6224 9.41243 16.6224 8.88698C16.6224 8.36152 17.0499 7.93397 17.5757 7.93397C18.1011 7.93397 18.5287 8.36152 18.5287 8.88698C18.5287 9.41243 18.1011 9.83998 17.5757 9.83998Z" fill="white"/>
<path d="M13.4181 10.7094C12.136 10.7094 11.092 11.7527 11.092 13.0348C11.092 14.3174 12.136 15.3611 13.4181 15.3611C14.7007 15.3611 15.7438 14.3174 15.7438 13.0348C15.7438 11.753 14.7004 10.7094 13.4181 10.7094Z" fill="white"/>
<path d="M13.4182 0C6.2388 0 0.418213 5.82058 0.418213 13C0.418213 20.1794 6.2388 26 13.4182 26C20.5976 26 26.4182 20.1794 26.4182 13C26.4182 5.82058 20.5976 0 13.4182 0ZM21.2381 16.9096C21.2381 19.0853 19.4685 20.8549 17.2928 20.8549H9.54362C7.36821 20.8549 5.59834 19.0853 5.59834 16.9096V9.16045C5.59834 6.98505 7.36821 5.21518 9.54362 5.21518H17.2928C19.4685 5.21518 21.2381 6.98505 21.2381 9.16045V16.9096Z" fill="white"/>
</svg>
