<svg width="16" height="24" viewBox="0 0 16 24" fill="none" xmlns="http://www.w3.org/2000/svg">
<path d="M7.94954 0C3.71486 0 0.269531 3.58889 0.269531 8.00002C0.269531 9.32423 0.587366 10.6372 1.19158 11.8018L7.52956 23.7422C7.61393 23.9014 7.77472 24 7.94954 24C8.12437 24 8.28515 23.9014 8.36953 23.7422L14.7098 11.7978C15.3117 10.6372 15.6296 9.32419 15.6296 7.99997C15.6296 3.58889 12.1842 0 7.94954 0ZM7.94954 12C5.8322 12 4.10956 10.2056 4.10956 8.00002C4.10956 5.79445 5.8322 4.00003 7.94954 4.00003C10.0669 4.00003 11.7895 5.79445 11.7895 8.00002C11.7895 10.2056 10.0669 12 7.94954 12Z" fill="white"/>
</svg>
