<svg width="25" height="18" viewBox="0 0 25 18" fill="none" xmlns="http://www.w3.org/2000/svg">
<path d="M16.8589 8.99825L24.9499 14.1133V3.66724L16.8589 8.99825Z" fill="white"/>
<path d="M0.949707 3.66724V14.1133L9.04072 8.99825L0.949707 3.66724Z" fill="white"/>
<path d="M23.4497 0.625244H2.44963C1.70113 0.625244 1.10713 1.18325 0.994629 1.90175L12.9497 9.77826L24.9047 1.90175C24.7922 1.18325 24.1982 0.625244 23.4497 0.625244Z" fill="white"/>
<path d="M15.4846 9.90421L13.3621 11.3022C13.2361 11.3847 13.0936 11.4252 12.9496 11.4252C12.8056 11.4252 12.6631 11.3847 12.5371 11.3022L10.4146 9.90271L0.997559 15.8592C1.11306 16.5717 1.70406 17.1252 2.44956 17.1252H23.4496C24.1951 17.1252 24.7861 16.5717 24.9016 15.8592L15.4846 9.90421Z" fill="white"/>
</svg>
