<svg width="25" height="25" viewBox="0 0 25 25" fill="none" xmlns="http://www.w3.org/2000/svg">
<path d="M24.2967 18.4262L20.9474 15.0769C19.7512 13.8807 17.7177 14.3593 17.2393 15.9142C16.8804 16.9908 15.6843 17.5889 14.6077 17.3496C12.2154 16.7515 8.98572 13.6415 8.38763 11.1296C8.02878 10.053 8.74648 8.8568 9.82303 8.498C11.3781 8.01953 11.8565 5.98604 10.6604 4.78988L7.31108 1.44061C6.35415 0.603293 4.91875 0.603293 4.08143 1.44061L1.80871 3.71333C-0.464002 6.10566 2.04795 12.4453 7.66993 18.0673C13.2919 23.6893 19.6316 26.3209 22.0239 23.9286L24.2967 21.6558C25.134 20.6989 25.134 19.2635 24.2967 18.4262Z" fill="white"/>
</svg>
