<svg width="27" height="26" viewBox="0 0 27 26" fill="none" xmlns="http://www.w3.org/2000/svg">
<path fill-rule="evenodd" clip-rule="evenodd" d="M26.6543 12.9999C26.6543 20.1795 20.8341 25.9998 13.6544 25.9998C6.47479 25.9998 0.654541 20.1795 0.654541 12.9999C0.654541 5.82025 6.47479 0 13.6544 0C20.8341 0 26.6543 5.82025 26.6543 12.9999ZM19.8316 9.83138C20.4601 9.75676 21.0594 9.58968 21.6165 9.34265C21.2 9.96579 20.6733 10.5129 20.0657 10.9509C20.0717 11.0839 20.0747 11.2181 20.0747 11.3527C20.0747 15.4593 16.9491 20.1941 11.2336 20.1941C9.47886 20.1941 7.84512 19.6799 6.4707 18.7979C6.71333 18.8269 6.96129 18.8415 7.21156 18.8415C8.66778 18.8415 10.0074 18.3449 11.0711 17.5113C9.71106 17.4861 8.56374 16.5876 8.1684 15.3534C8.35795 15.3895 8.55238 15.4088 8.75306 15.4088C9.03601 15.4088 9.31108 15.371 9.57155 15.2996C8.15032 15.0144 7.07878 13.7586 7.07878 12.253C7.07878 12.24 7.07878 12.2268 7.07901 12.2136C7.49775 12.447 7.97721 12.5867 8.48634 12.6027C7.65302 12.0456 7.10404 11.0941 7.10404 10.0163C7.10404 9.44693 7.25744 8.91278 7.52487 8.45394C9.05756 10.3345 11.3473 11.5715 13.9298 11.701C13.8765 11.4735 13.8489 11.2364 13.8489 10.9928C13.8489 9.27707 15.2405 7.8855 16.9563 7.8855C17.8505 7.8855 18.6581 8.26276 19.2249 8.86643C19.9324 8.72716 20.5977 8.46878 21.1982 8.1126C20.9657 8.83862 20.4733 9.44693 19.8316 9.83138Z" fill="white"/>
</svg>
