<svg width="239" height="62" viewBox="0 0 239 62" fill="none" xmlns="http://www.w3.org/2000/svg">
<path d="M9.98788 7.28384C9.99819 8.18558 9.87499 9.08388 9.62228 9.94955C9.40312 10.7086 9.01222 11.407 8.47984 11.9907C7.9413 12.5809 7.26676 13.0306 6.51484 13.3007C5.596 13.626 4.62552 13.7808 3.6511 13.7577H0.437012V1.12985H4.18425C5.04007 1.11678 5.89284 1.23493 6.71287 1.4802C7.40177 1.69863 8.02495 2.08617 8.52553 2.60742C9.03393 3.1484 9.40942 3.80029 9.62228 4.5115C9.88261 5.41202 10.0059 6.34661 9.98788 7.28384ZM7.42881 7.43616C7.43312 6.82283 7.377 6.21056 7.26125 5.60824C7.17541 5.12292 6.98859 4.66104 6.71287 4.25253C6.44655 3.87796 6.08318 3.58305 5.66182 3.39951C5.14253 3.1979 4.58887 3.09958 4.03191 3.11009H2.8133V11.7622H3.89482C4.38577 11.7968 4.87825 11.7218 5.33664 11.5426C5.79504 11.3635 6.20789 11.0847 6.54531 10.7264C7.21027 9.76525 7.51254 8.59932 7.39833 7.43616H7.42881Z" fill="white"/>
<path d="M12.2424 13.7568V1.129H19.8587V3.1397H14.6644V6.27762H19.615V8.24263H14.6644V11.7461H19.8587V13.7568H12.2424Z" fill="white"/>
<path d="M31.0546 13.2694C30.5284 13.488 29.9826 13.6563 29.4247 13.7721C28.8884 13.8829 28.3424 13.939 27.7948 13.9396C26.9689 13.9551 26.1474 13.8156 25.3728 13.5284C24.696 13.2818 24.0895 12.874 23.6058 12.3402C23.1108 11.7663 22.7377 11.0978 22.5091 10.3752C22.2506 9.48471 22.1274 8.56044 22.1435 7.63333C22.1309 6.67317 22.2697 5.71702 22.5548 4.80006C22.7912 4.02688 23.1854 3.31112 23.7124 2.69797C24.2133 2.13074 24.8391 1.68753 25.5404 1.40319C26.3081 1.08747 27.1323 0.931954 27.9624 0.946211H28.7849H29.5313L30.2777 1.08331L31.0546 1.31179V3.67285C30.5692 3.43305 30.0582 3.24909 29.5313 3.12448C29.0916 3.0217 28.6423 2.96553 28.1908 2.95692C27.6651 2.94365 27.1435 3.05318 26.6676 3.2768C26.2448 3.48648 25.8829 3.80117 25.6165 4.19076C25.3234 4.60778 25.1163 5.079 25.0072 5.57693C24.8752 6.16181 24.8088 6.75956 24.8092 7.35915C24.8064 7.97395 24.8729 8.58712 25.0072 9.18707C25.1212 9.68134 25.3337 10.1476 25.6318 10.558C25.9076 10.9296 26.2749 11.2235 26.698 11.411C27.179 11.6162 27.6986 11.7149 28.2213 11.7004C28.4544 11.7217 28.6889 11.7217 28.922 11.7004C29.1752 11.6664 29.425 11.6104 29.6684 11.5329C29.9268 11.4729 30.1812 11.3966 30.43 11.3044L31.1155 11.015L31.0546 13.2694Z" fill="white"/>
<path d="M40.4531 13.7568L39.7676 11.2587H35.3502L34.6342 13.7568H32.2732L36.0204 1.129H39.3411L43.0883 13.7568H40.4531ZM37.5894 3.50528L35.8833 9.32415H39.1888L37.5894 3.50528Z" fill="white"/>
<path d="M53.5074 7.28298C53.5177 8.18472 53.3945 9.08302 53.1418 9.94869C52.9226 10.7077 52.5317 11.4061 51.9994 11.9899C51.4608 12.5801 50.7863 13.0298 50.0343 13.2999C49.1155 13.6251 48.1451 13.78 47.1706 13.7568H43.9565V1.129H47.7038C48.5596 1.11593 49.4124 1.23408 50.2324 1.47934C50.9213 1.69777 51.5445 2.08531 52.0451 2.60656C52.5535 3.14754 52.929 3.79944 53.1418 4.51064C53.4021 5.41117 53.5254 6.34576 53.5074 7.28298ZM50.9483 7.43531C50.9526 6.82198 50.8965 6.20971 50.7808 5.60738C50.6949 5.12206 50.5081 4.66019 50.2324 4.25168C49.9661 3.8771 49.6027 3.5822 49.1813 3.39866C48.6572 3.19546 48.0982 3.09713 47.5362 3.10923H46.3328V11.7614H47.3839C47.8748 11.7959 48.3673 11.7209 48.8257 11.5418C49.2841 11.3626 49.6969 11.0838 50.0343 10.7255C50.7208 9.77249 51.0449 8.60587 50.9483 7.43531Z" fill="white"/>
<path d="M55.7922 13.7568V1.129H63.4086V3.1397H58.2142V6.27762H63.1648V8.24263H58.2142V11.7461H63.4086V13.7568H55.7922Z" fill="white"/>
<path d="M86.3183 7.38959C86.3427 8.41936 86.2091 9.44679 85.9223 10.4361C85.6931 11.1845 85.3148 11.8788 84.8103 12.4773C84.3716 13.0101 83.8058 13.4239 83.1652 13.6807C82.5248 13.9326 81.8427 14.0618 81.1545 14.0615C80.4419 14.1107 79.7281 13.9852 79.075 13.6958C78.422 13.4064 77.8495 12.962 77.4072 12.4011C76.4766 10.9755 76.033 9.28659 76.1429 7.58761C76.1242 6.58317 76.2577 5.58169 76.539 4.61725C76.7651 3.86296 77.1436 3.16305 77.6509 2.56084C78.1008 2.04372 78.6637 1.63717 79.2961 1.37269C79.9344 1.11368 80.6179 0.984225 81.3068 0.991878C82.0178 0.943508 82.7299 1.06786 83.3824 1.35433C84.0349 1.6408 84.6084 2.08087 85.054 2.637C85.97 4.0465 86.4129 5.71127 86.3183 7.38959ZM83.8049 7.51144C83.8744 6.36314 83.6709 5.21471 83.2109 4.16027C83.0198 3.80758 82.7319 3.51691 82.381 3.32257C82.0301 3.12824 81.6309 3.03835 81.2306 3.06352C80.83 3.03499 80.4299 3.12529 80.0804 3.32308C79.7308 3.52088 79.4474 3.8174 79.2656 4.1755C79.0341 4.59672 78.8793 5.05578 78.8086 5.53121C78.6986 6.14438 78.6476 6.76668 78.6563 7.38959C78.5863 8.53944 78.7953 9.68917 79.2656 10.7408C79.4511 11.0947 79.7358 11.387 80.0848 11.5818C80.4338 11.7766 80.8319 11.8654 81.2306 11.8375C81.641 11.8527 82.0473 11.7524 82.4035 11.5481C82.7446 11.3484 83.024 11.0585 83.2109 10.7103C83.4303 10.2852 83.5795 9.82737 83.6526 9.35459C83.7627 8.74655 83.8137 8.1293 83.8049 7.51144Z" fill="white"/>
<path d="M90.8729 3.1397V6.62798H95.6407V8.59298H90.8729V13.7568H88.4509V1.129H95.9149V3.1397H90.8729Z" fill="white"/>
<path d="M116.616 13.7568L115.931 11.2587H111.513L110.797 13.7568H108.436L112.183 1.129H115.504L119.251 13.7568H116.616ZM113.798 3.50528L112.138 9.38508H115.443L113.798 3.50528Z" fill="white"/>
<path d="M129.046 13.2694C128.519 13.4859 127.974 13.6541 127.416 13.7721C126.875 13.8828 126.324 13.939 125.771 13.9396C124.95 13.9535 124.134 13.814 123.364 13.5284C122.686 13.2857 122.078 12.8773 121.598 12.3402C121.092 11.7741 120.717 11.1031 120.501 10.3752C120.242 9.48471 120.119 8.56044 120.135 7.63333C120.124 6.6744 120.258 5.7193 120.531 4.80006C120.779 4.02834 121.177 3.3137 121.704 2.69797C122.205 2.13074 122.831 1.68753 123.532 1.40319C124.3 1.08747 125.124 0.931954 125.954 0.946211H126.761H127.523L128.269 1.08331L129.046 1.31179V3.67285C128.561 3.43305 128.05 3.24909 127.523 3.12448C127.078 3.02074 126.624 2.96458 126.167 2.95692C125.642 2.94531 125.121 3.05476 124.644 3.2768C124.221 3.48648 123.859 3.80117 123.593 4.19076C123.305 4.60879 123.103 5.08002 122.999 5.57693C122.859 6.16052 122.793 6.75917 122.801 7.35915C122.791 7.97432 122.857 8.58839 122.999 9.18707C123.115 9.67811 123.321 10.1431 123.608 10.558C123.891 10.9229 124.256 11.2153 124.674 11.411C125.156 11.614 125.675 11.7126 126.198 11.7004C126.431 11.7211 126.665 11.7211 126.898 11.7004C127.151 11.6648 127.401 11.6088 127.645 11.5329C127.903 11.4708 128.157 11.3945 128.407 11.3044L129.092 11.015L129.046 13.2694Z" fill="white"/>
<path d="M136.891 3.10923V13.7721H134.454V3.10923H130.996V1.129H140.349V3.10923H136.891Z" fill="white"/>
<path d="M142.512 3.06354V1.129H150.509V3.06354H147.721V11.7918H150.509V13.7568H142.512V11.7918H145.299V3.06354H142.512Z" fill="white"/>
<path d="M162.528 7.38964C162.552 8.41942 162.418 9.44685 162.131 10.4362C161.902 11.1846 161.524 11.8789 161.019 12.4773C160.583 13.0062 160.023 13.4195 159.39 13.6807C158.743 13.9311 158.057 14.0602 157.364 14.0615C156.651 14.1107 155.937 13.9852 155.284 13.6959C154.631 13.4065 154.059 12.9621 153.616 12.4012C152.686 10.9755 152.242 9.28665 152.352 7.58766C152.33 6.58196 152.469 5.5792 152.763 4.61731C152.978 3.86153 153.352 3.16039 153.86 2.56089C154.31 2.04378 154.873 1.63722 155.505 1.37275C156.144 1.11373 156.827 0.98428 157.516 0.991933C158.229 0.942349 158.944 1.06607 159.599 1.35254C160.254 1.639 160.831 2.07971 161.278 2.63706C162.189 4.04835 162.627 5.71299 162.528 7.38964ZM160.014 7.5115C160.084 6.36319 159.88 5.21477 159.42 4.16032C159.23 3.80639 158.943 3.51465 158.592 3.32012C158.24 3.12558 157.84 3.03651 157.44 3.06357C157.032 3.0534 156.628 3.14779 156.267 3.33776C155.937 3.54628 155.665 3.83436 155.475 4.17556C155.243 4.59678 155.089 5.05583 155.018 5.53126C154.915 6.1454 154.864 6.76702 154.866 7.38964C154.803 8.53902 155.012 9.68696 155.475 10.7408C155.663 11.0923 155.949 11.3824 156.297 11.5767C156.645 11.7711 157.042 11.8616 157.44 11.8376C157.85 11.8528 158.257 11.7525 158.613 11.5481C158.954 11.3485 159.233 11.0586 159.42 10.7104C159.638 10.2834 159.792 9.82656 159.877 9.35464C159.974 8.74515 160.02 8.12862 160.014 7.5115Z" fill="white"/>
<path d="M170.037 13.7568L166.655 6.14053L165.955 4.51064V13.6502H163.837V1.129H166.762L170.22 8.74531L170.829 10.2686V1.129H172.977V13.7568H170.037Z" fill="white"/>
<path d="M195.186 7.38959C195.218 8.41976 195.085 9.44841 194.79 10.4361C194.559 11.1804 194.186 11.8733 193.693 12.4773C193.248 13.0033 192.684 13.4158 192.048 13.6807C191.402 13.9311 190.715 14.0602 190.022 14.0615C189.31 14.1107 188.596 13.9852 187.943 13.6958C187.29 13.4064 186.717 12.962 186.275 12.4011C185.351 10.9732 184.913 9.2848 185.026 7.58761C185 6.58275 185.133 5.58009 185.422 4.61725C185.643 3.86386 186.016 3.16389 186.519 2.56084C186.969 2.04372 187.532 1.63717 188.164 1.37269C188.808 1.11364 189.496 0.984225 190.19 0.991878C190.901 0.943508 191.613 1.06786 192.266 1.35433C192.918 1.6408 193.492 2.08087 193.937 2.637C194.848 4.04829 195.285 5.71293 195.186 7.38959ZM192.673 7.51144C192.742 6.36314 192.539 5.21471 192.079 4.16027C191.891 3.80506 191.603 3.51224 191.252 3.31751C190.9 3.12277 190.499 3.03452 190.099 3.06352C189.695 3.05108 189.296 3.14568 188.941 3.3377C188.607 3.54576 188.329 3.83365 188.134 4.1755C187.915 4.60247 187.761 5.05929 187.677 5.53121C187.58 6.14583 187.534 6.76741 187.539 7.38959C187.473 8.53773 187.676 9.68549 188.134 10.7408C188.322 11.0922 188.607 11.3823 188.956 11.5767C189.304 11.7711 189.7 11.8616 190.099 11.8375C190.514 11.8524 190.925 11.7522 191.287 11.5481C191.62 11.3433 191.893 11.0543 192.079 10.7103C192.304 10.2862 192.458 9.82832 192.536 9.35459C192.633 8.74509 192.679 8.12857 192.673 7.51144Z" fill="white"/>
<path d="M202.711 13.7568L199.314 6.14053L198.629 4.51064V13.6502H196.466V1.129H199.375L202.833 8.74531L203.442 10.2686V1.129H205.605V13.7568H202.711Z" fill="white"/>
<path d="M1.03125 26.8271V24.8317H9.01316V26.7662H6.22558V35.4945H9.01316V37.4595H1.03125V35.4945H3.8036V26.7662L1.03125 26.8271Z" fill="white"/>
<path d="M17.604 37.5197L14.2224 29.9034L13.5217 28.2735V37.4131H11.3586V24.8309H14.2833L17.7259 32.4472L18.3352 33.9705V24.8309H20.4982V37.4588L17.604 37.5197Z" fill="white"/>
<path d="M25.5403 26.9026V30.3908H30.3233V32.3559H25.5403V37.5197H23.1335V24.8309H30.5975V26.8416L25.5403 26.9026Z" fill="white"/>
<path d="M40.4529 37.5198L39.7674 35.0216H35.3499L34.634 37.5198H32.2729L36.0202 24.8919H39.3409L43.0881 37.5198H40.4529ZM37.5891 27.2073L35.8831 33.0871H39.1886L37.5891 27.2073Z" fill="white"/>
<path d="M50.2783 37.5197L46.8967 29.9034L46.196 28.2735V37.4131H44.033V24.8309H46.9576L50.4002 32.4472L51.0095 33.9705V24.8309H53.1878V37.4588L50.2783 37.5197Z" fill="white"/>
<path d="M60.682 26.8721V37.5349H58.2448V26.8721H54.7717V24.8309H64.1398V26.8112L60.682 26.8721Z" fill="white"/>
<path d="M84.0036 37.5198L83.303 35.0216H78.9007L78.1848 37.5198H75.8237L79.5709 24.8919H82.8917L86.6389 37.5198H84.0036ZM81.1399 27.2073L79.4643 33.0871H82.785L81.1399 27.2073Z" fill="white"/>
<path d="M93.7674 37.5197L90.3857 29.9034L89.685 28.2735V37.4131H87.522V24.8309H90.4467L93.8892 32.4472L94.4985 33.9705V24.8309H96.8139V37.4588L93.7674 37.5197Z" fill="white"/>
<path d="M107.934 31.0459C107.944 31.9476 107.821 32.8459 107.568 33.7116C107.36 34.472 106.974 35.1718 106.441 35.7528C105.882 36.3292 105.192 36.7629 104.43 37.0171C103.506 37.3435 102.531 37.4984 101.551 37.4741H98.3372V24.831H102.069C102.93 24.818 103.788 24.9362 104.613 25.1813C105.3 25.4032 105.923 25.7903 106.426 26.3085C106.935 26.8462 107.306 27.4997 107.507 28.2126C107.794 29.1295 107.938 30.0852 107.934 31.0459ZM105.39 31.1982C105.394 30.5849 105.338 29.9726 105.222 29.3703C105.138 28.882 104.945 28.4188 104.659 28.0146C104.394 27.6442 104.037 27.35 103.623 27.1616C103.099 26.9584 102.54 26.86 101.978 26.8721H100.774V35.4938H101.81C102.304 35.5307 102.799 35.4568 103.26 35.2776C103.721 35.0984 104.137 34.8183 104.476 34.458C105.155 33.5131 105.479 32.3586 105.39 31.1982Z" fill="white"/>
<path d="M125.954 33.0414V37.5198H123.547V33.0718L119.435 24.8919H122.07L123.928 28.7915L124.781 30.7108L125.634 28.7305L127.569 24.8919H130.113L125.954 33.0414Z" fill="white"/>
<path d="M140.76 31.1525C140.78 32.1581 140.641 33.1605 140.349 34.1229C140.131 34.8727 139.757 35.5682 139.252 36.164C138.802 36.6812 138.239 37.0877 137.607 37.3522C136.97 37.6164 136.286 37.7511 135.596 37.7482C134.881 37.7987 134.165 37.6738 133.509 37.3844C132.854 37.0951 132.279 36.65 131.834 36.0879C130.907 34.6552 130.469 32.9613 130.585 31.2591C130.567 30.2598 130.701 29.2635 130.981 28.304C131.207 27.5497 131.585 26.8498 132.093 26.2476C132.534 25.7278 133.093 25.3205 133.723 25.0595C134.367 24.8019 135.055 24.6726 135.749 24.6786C136.457 24.6388 137.165 24.7703 137.812 25.062C138.459 25.3537 139.026 25.7969 139.465 26.3542C140.402 27.7729 140.856 29.4555 140.76 31.1525ZM138.247 31.2591C138.311 30.1146 138.103 28.971 137.638 27.9232C137.453 27.5676 137.169 27.2733 136.82 27.076C136.471 26.8786 136.073 26.7866 135.673 26.8112C135.263 26.8036 134.859 26.9034 134.5 27.1006C134.166 27.3048 133.893 27.594 133.708 27.9384C133.477 28.3616 133.318 28.8195 133.235 29.2941C133.138 29.9088 133.093 30.5303 133.098 31.1525C133.028 32.3024 133.237 33.4521 133.708 34.5037C133.893 34.8577 134.178 35.1499 134.527 35.3447C134.876 35.5395 135.274 35.6283 135.673 35.6004C136.083 35.6157 136.489 35.5154 136.845 35.311C137.182 35.111 137.457 34.8209 137.638 34.4732C137.869 34.052 138.024 33.593 138.095 33.1175C138.198 32.5035 138.249 31.8818 138.247 31.2591Z" fill="white"/>
<path d="M151.164 32.8738C151.18 33.5939 151.067 34.3111 150.829 34.9911C150.644 35.5555 150.332 36.07 149.918 36.4952C149.503 36.9203 148.997 37.2448 148.437 37.4435C147.803 37.652 147.139 37.7549 146.472 37.7482C145.765 37.7611 145.06 37.6582 144.385 37.4435C143.857 37.2678 143.381 36.9646 142.998 36.5607C142.616 36.1568 142.339 35.6648 142.192 35.1282C142.027 34.5226 141.945 33.8974 141.948 33.2698V24.8309H144.34V33.0566C144.333 33.4401 144.369 33.8233 144.446 34.199C144.513 34.5018 144.643 34.7871 144.827 35.0368C145.012 35.2667 145.254 35.445 145.528 35.5547C145.86 35.6732 146.211 35.73 146.564 35.7223C146.905 35.7336 147.246 35.6819 147.569 35.5699C147.833 35.4725 148.065 35.3038 148.239 35.0825C148.439 34.8329 148.579 34.5412 148.65 34.2295C148.744 33.8148 148.785 33.39 148.772 32.9652V24.8309H151.164V32.8738Z" fill="white"/>
<path d="M159.161 37.5197L155.764 29.9034L155.079 28.2735V37.4131H152.916V24.8309H155.825L159.283 32.4472L159.892 33.9705V24.8309H162.055V37.4588L159.161 37.5197Z" fill="white"/>
<path d="M168.408 32.1731V30.2081H172.901V37.0171C172.322 37.2831 171.713 37.4824 171.089 37.6111C170.407 37.7501 169.713 37.8164 169.017 37.8092C168.211 37.8206 167.41 37.6811 166.656 37.3979C165.976 37.1406 165.366 36.7286 164.874 36.1945C164.36 35.6172 163.976 34.9369 163.747 34.199C163.208 32.3796 163.208 30.4433 163.747 28.6239C163.995 27.8419 164.405 27.1206 164.95 26.5065C165.486 25.9239 166.148 25.4708 166.884 25.1813C167.724 24.8756 168.611 24.7259 169.504 24.7396C170.071 24.7385 170.636 24.7844 171.195 24.8767C171.75 24.985 172.3 25.1223 172.84 25.2879V27.6338C172.354 27.3974 171.843 27.2135 171.317 27.0854C170.746 26.9337 170.157 26.8568 169.565 26.8569C169.041 26.8529 168.521 26.962 168.042 27.1768C167.595 27.3668 167.202 27.6652 166.9 28.045C166.58 28.4638 166.342 28.9393 166.199 29.4464C166.041 30.0582 165.964 30.6882 165.97 31.3201C165.964 31.9342 166.025 32.5472 166.153 33.148C166.257 33.6402 166.459 34.1064 166.747 34.5189C167.021 34.8866 167.382 35.1799 167.798 35.3719C168.278 35.5833 168.798 35.6873 169.322 35.6766H169.702C169.809 35.6914 169.916 35.6914 170.022 35.6766H170.297L170.571 35.5852V32.3559L168.408 32.1731Z" fill="white"/>
<path d="M194.303 37.0171C193.778 37.2377 193.232 37.4061 192.673 37.5198C192.137 37.6305 191.591 37.6867 191.043 37.6873C190.217 37.7028 189.396 37.5632 188.621 37.276C187.947 37.0246 187.342 36.6175 186.854 36.0879C186.359 35.517 185.99 34.8472 185.773 34.1229C185.502 33.2348 185.373 32.3094 185.392 31.381C185.379 30.4208 185.518 29.4647 185.803 28.5477C186.046 27.7772 186.439 27.0627 186.961 26.4456C187.462 25.8784 188.088 25.4352 188.789 25.1509C189.557 24.8351 190.381 24.6796 191.211 24.6939H192.033H192.78L193.526 24.831C193.789 24.8931 194.048 24.9693 194.303 25.0595V27.4205C193.817 27.1821 193.306 26.9982 192.78 26.8721C192.336 26.7627 191.881 26.7065 191.424 26.7046C190.898 26.6913 190.377 26.8009 189.901 27.0245C189.478 27.2342 189.116 27.5489 188.85 27.9384C188.563 28.3588 188.356 28.8288 188.24 29.3246C188.114 29.9101 188.053 30.5078 188.058 31.1068C188.047 31.722 188.114 32.3361 188.256 32.9347C188.365 33.428 188.572 33.8942 188.865 34.3057C189.141 34.6773 189.508 34.9712 189.931 35.1587C190.413 35.363 190.932 35.4617 191.455 35.4481C191.683 35.4694 191.912 35.4694 192.14 35.4481C192.392 35.4068 192.641 35.3509 192.886 35.2806C193.145 35.2205 193.399 35.1442 193.648 35.0521L194.334 34.7626L194.303 37.0171Z" fill="white"/>
<path d="M203.137 37.5197V32.0207H198.872V37.5197H196.496V24.8309H198.872V29.9034H203.168V24.8309H205.544V37.4588L203.137 37.5197Z" fill="white"/>
<path d="M207.89 26.8264V24.8309H215.872V26.7655H213.084V35.4938H215.872V37.4588H207.89V35.4938H210.678V26.7655L207.89 26.8264Z" fill="white"/>
<path d="M219.224 37.5197V24.8309H221.722V35.4938H227.053V37.5349L219.224 37.5197Z" fill="white"/>
<path d="M238.584 31.0459C238.594 31.9476 238.471 32.8459 238.218 33.7116C238.011 34.472 237.624 35.1718 237.091 35.7528C236.55 36.3397 235.876 36.7889 235.126 37.0628C234.202 37.3879 233.227 37.5427 232.247 37.5198H229.048V24.831H232.78C233.641 24.818 234.499 24.9362 235.324 25.1813C236.011 25.4032 236.634 25.7903 237.137 26.3085C237.646 26.8462 238.018 27.4997 238.218 28.2126C238.485 29.1327 238.608 30.0883 238.584 31.0459ZM236.04 31.1982C236.044 30.5849 235.988 29.9726 235.873 29.3703C235.782 28.8839 235.59 28.4221 235.309 28.0146C235.043 27.64 234.679 27.3451 234.258 27.1616C233.74 26.9568 233.185 26.8584 232.628 26.8721H231.425V35.4938H232.46C232.954 35.5307 233.449 35.4568 233.911 35.2776C234.372 35.0984 234.787 34.8183 235.126 34.458C235.806 33.5131 236.129 32.3586 236.04 31.1982Z" fill="white"/>
<path d="M3.7733 50.7265V54.2147H8.54112V56.1797H3.7733V61.3436H1.35132V48.7158H8.8153V50.7265H3.7733Z" fill="white"/>
<path d="M12.2424 61.2826V48.6548H19.8587V50.7264H14.6644V53.7729H19.615V55.7379H14.6644V59.2415H19.8587V61.2522L12.2424 61.2826Z" fill="white"/>
<path d="M23.1338 61.2826V48.6548H30.7501V50.7264H25.5558V53.7729H30.5064V55.7379H25.5558V59.2415H30.7501V61.2522L23.1338 61.2826Z" fill="white"/>
<path d="M42.6163 54.8088C42.6266 55.7105 42.5034 56.6088 42.2507 57.4745C42.0306 58.2299 41.6457 58.9271 41.1235 59.5157C40.5796 60.0995 39.9067 60.5482 39.1585 60.8257C38.2341 61.1498 37.2588 61.3046 36.2795 61.2826H33.0654V48.6548H36.8127C37.6734 48.643 38.531 48.7611 39.3565 49.0051C40.0413 49.2325 40.6624 49.6188 41.1692 50.1324C41.6673 50.6784 42.0368 51.329 42.2507 52.0364C42.511 52.937 42.6343 53.8715 42.6163 54.8088ZM40.0572 54.9611C40.0691 54.3475 40.0129 53.7344 39.8897 53.1332C39.8038 52.6479 39.617 52.186 39.3413 51.7775C39.075 51.4029 38.7116 51.108 38.2902 50.9245C37.7709 50.7228 37.2173 50.6245 36.6603 50.635H35.4417V59.3024H36.4928C36.9873 59.3363 37.4831 59.2595 37.9442 59.0777C38.4053 58.8959 38.8201 58.6136 39.1585 58.2514C39.8324 57.2929 40.1503 56.1291 40.0572 54.9611Z" fill="white"/>
<path d="M44.5813 50.5893V48.6548H52.6393V50.5893H49.8518V59.3176H52.6393V61.2826H44.6574V59.3176H47.4298V50.5893H44.5813Z" fill="white"/>
<path d="M61.1697 61.2826L57.7881 53.6663L57.0873 52.0517V61.1913H54.9243V48.5634H57.849L61.2915 56.1797L61.9009 57.703V48.5634H64.0639V61.1913L61.1697 61.2826Z" fill="white"/>
<path d="M70.401 55.936V53.971H74.9708V60.7191C74.3939 60.9923 73.7849 61.1919 73.1581 61.3131C72.4815 61.4513 71.7922 61.5177 71.1017 61.5112C70.2908 61.5241 69.4848 61.3846 68.7254 61.0999C68.0499 60.8351 67.4413 60.4241 66.9432 59.8965C66.4348 59.3156 66.0511 58.6364 65.816 57.901C65.2879 56.0802 65.2879 54.1468 65.816 52.3259C66.0596 51.5448 66.4643 50.8235 67.0041 50.2086C67.5402 49.6259 68.2017 49.1728 68.9387 48.8833C69.7784 48.5799 70.6659 48.4303 71.5587 48.4416C72.1301 48.4415 72.7006 48.4873 73.2647 48.5787C73.8199 48.687 74.369 48.8243 74.9099 48.9899V51.3358C74.4218 51.1024 73.9114 50.9187 73.3866 50.7874C72.815 50.6357 72.2262 50.5589 71.6349 50.5589C71.11 50.555 70.5905 50.6641 70.1116 50.8788C69.6646 51.0689 69.272 51.3673 68.9691 51.7471C68.6482 52.163 68.415 52.6398 68.2837 53.1484C68.1115 53.763 68.0294 54.3992 68.04 55.0373C68.0342 55.6464 68.0955 56.2543 68.2227 56.85C68.3267 57.3422 68.5288 57.8085 68.8168 58.2209C69.0917 58.5972 69.459 58.8962 69.8831 59.0892C70.3647 59.2921 70.8839 59.3907 71.4064 59.3786H71.8024C71.9034 59.3934 72.0061 59.3934 72.1071 59.3786H72.3813L72.6554 59.2872V56.0579L70.401 55.936Z" fill="white"/>
<path d="M88.1318 50.5893V48.6548H96.1137V50.5893H93.3262V59.3176H96.1137V61.2826H88.1318V59.3176H90.9042V50.5893H88.1318Z" fill="white"/>
<path d="M104.72 61.2826L101.384 53.773L100.683 52.1583V61.2979H98.5203V48.67H101.384L104.827 56.2863L105.436 57.8096V48.67H107.599V61.2979L104.72 61.2826Z" fill="white"/>
<path d="M121.08 61.2835V48.6556H128.696V50.7273H123.502V53.7738H128.452V55.7388H123.502V59.2423H128.696V61.253L121.08 61.2835Z" fill="#F8C41A"/>
<path d="M139.892 60.7952C139.371 61.0136 138.83 61.182 138.277 61.2979C137.736 61.4079 137.185 61.4641 136.632 61.4654C135.811 61.4822 134.994 61.3427 134.225 61.0541C133.544 60.8081 132.932 60.4004 132.443 59.866C131.947 59.2951 131.579 58.6253 131.362 57.901C131.091 57.018 130.963 56.0977 130.981 55.1744C130.967 54.2091 131.106 53.2477 131.392 52.3259C131.635 51.5553 132.028 50.8408 132.55 50.2237C133.051 49.6565 133.677 49.2133 134.378 48.929C135.147 48.6169 135.97 48.4615 136.8 48.472H137.622H138.369L139.115 48.6091C139.378 48.6712 139.637 48.7474 139.892 48.8376V51.1986C139.407 50.958 138.896 50.774 138.369 50.6503C137.924 50.5484 137.469 50.4922 137.013 50.4827C136.487 50.4694 135.966 50.579 135.49 50.8026C135.067 51.0123 134.705 51.327 134.439 51.7166C134.152 52.1369 133.945 52.6069 133.829 53.1027C133.703 53.6882 133.642 54.2859 133.647 54.8849C133.636 55.5001 133.703 56.1142 133.845 56.7128C133.954 57.2061 134.161 57.6723 134.454 58.0838C134.73 58.4554 135.097 58.7493 135.52 58.9368C136.001 59.1411 136.521 59.2398 137.044 59.2262C137.272 59.2475 137.501 59.2475 137.729 59.2262C137.985 59.1887 138.24 59.1378 138.491 59.0739L139.237 58.8302L139.922 58.5408L139.892 60.7952Z" fill="#F8C41A"/>
<path d="M149.29 61.2826L148.605 58.7845H144.187L143.471 61.2826H141.11L144.858 48.6548H148.178L151.926 61.2826H149.29ZM146.427 50.9702L144.766 56.8195H148.072L146.427 50.9702Z" fill="#F8C41A"/>
</svg>
