<svg width="161" height="86" viewBox="0 0 161 86" fill="none" xmlns="http://www.w3.org/2000/svg">
<path d="M138.482 0.569672C135.53 0.569672 132.644 1.44518 130.189 3.08549C127.734 4.7258 125.82 7.05723 124.691 9.78496C123.561 12.5127 123.265 15.5142 123.841 18.41C124.417 21.3057 125.839 23.9656 127.927 26.0533C130.014 28.141 132.674 29.5628 135.57 30.1388C138.466 30.7148 141.467 30.4192 144.195 29.2893C146.923 28.1594 149.254 26.2461 150.894 23.7912C152.535 21.3363 153.41 18.4501 153.41 15.4976C153.402 11.541 151.827 7.74866 149.029 4.95086C146.231 2.15307 142.439 0.577722 138.482 0.569672ZM150.059 7.27203C149.297 7.72901 148.536 8.18598 147.622 8.64296C147.157 7.64065 146.54 6.71587 145.794 5.90109C146.412 5.58336 146.977 5.17233 147.469 4.68248C148.513 5.34453 149.397 6.22876 150.059 7.27203ZM143.814 2.24526C145.041 2.69723 146.177 3.36818 147.165 4.2255C146.633 4.66759 146.074 5.07465 145.489 5.44411C144.728 4.68248 143.966 3.92085 143.052 3.15922C143.357 2.85456 143.509 2.54991 143.814 2.24526ZM144.88 5.59644C144.097 6.01527 143.282 6.3718 142.443 6.66272C142.098 5.82099 141.691 5.00629 141.224 4.2255C141.712 4.03098 142.172 3.77504 142.595 3.46387C143.428 4.0945 144.193 4.80912 144.88 5.59644ZM143.204 2.09293C143.052 2.39759 142.747 2.54991 142.595 2.70224C141.852 2.13174 141.031 1.67012 140.158 1.3313C141.201 1.45836 142.224 1.71419 143.204 2.09293ZM141.986 3.15922C141.665 3.41845 141.305 3.6242 140.919 3.76852C140.462 3.15922 140.005 2.39759 139.548 1.78828C140.422 2.1271 141.243 2.58872 141.986 3.15922ZM138.787 1.78828C139.379 2.43476 139.891 3.15087 140.31 3.92085C139.82 4.09518 139.307 4.19779 138.787 4.2255V1.78828ZM138.787 4.83481C139.406 4.80804 140.02 4.70573 140.615 4.53016C141.111 5.29445 141.52 6.11196 141.833 6.96737C140.846 7.26785 139.819 7.42182 138.787 7.42435V4.83481ZM138.178 1.94061V4.2255C137.658 4.19779 137.145 4.09518 136.654 3.92085C137.113 3.2248 137.623 2.56299 138.178 1.94061ZM136.045 3.76852C135.671 3.59887 135.314 3.39489 134.979 3.15922C135.74 2.70224 136.654 2.24526 137.568 1.78828C136.978 2.38052 136.466 3.04603 136.045 3.76852ZM136.959 1.3313C136.045 1.78828 135.283 2.24526 134.522 2.70224C134.217 2.54991 134.065 2.24526 133.912 2.09293C134.875 1.66132 135.906 1.40347 136.959 1.3313ZM147.012 26.7698C146.398 26.4994 145.879 26.049 145.526 25.4778C145.172 24.9067 145 24.2418 145.032 23.5709C145.185 22.9616 145.489 23.2663 145.794 23.2663C146.639 23.2449 147.471 23.0436 148.232 22.6759C148.994 22.3082 149.669 21.7825 150.211 21.1337C151.284 19.8547 151.833 18.2173 151.748 16.5503C151.663 14.8833 150.951 13.3101 149.754 12.1465C146.555 9.09994 143.204 9.70925 141.072 12.2988C140.752 12.6127 140.37 12.8561 139.95 13.0135C139.53 13.1709 139.082 13.2388 138.635 13.2128C137.264 13.2128 138.178 14.279 138.178 14.4314C138.178 14.5837 138.025 14.8883 137.873 14.736C137.416 14.5837 137.568 15.3453 137.568 15.4976C137.561 15.5761 137.527 15.6497 137.471 15.7054C137.416 15.7611 137.342 15.7954 137.264 15.8023C136.654 15.8023 136.807 16.2593 136.807 16.4116C136.807 16.5639 136.807 16.8686 136.654 16.8686C136.414 17.1205 136.254 17.4389 136.197 17.7825C136.197 18.3918 136.807 18.8488 137.721 19.6105C138.03 19.8094 138.288 20.0787 138.473 20.3964C138.658 20.7141 138.766 21.0712 138.787 21.4384C138.75 22.0628 138.854 22.6875 139.091 23.2663C139.199 23.4523 139.255 23.6635 139.255 23.8783C139.254 24.0932 139.197 24.3041 139.089 24.4897C138.981 24.6752 138.825 24.8289 138.638 24.9351C138.452 25.0412 138.24 25.0961 138.025 25.0942C136.368 25.292 134.764 25.8093 133.303 26.6175C132.326 26.9711 131.265 27.0241 130.257 26.7698C129.713 26.411 129.203 26.0031 128.733 25.5512C128.648 24.9059 128.811 24.2523 129.19 23.7233C129.442 23.9295 129.737 24.0774 130.053 24.1564C130.369 24.2355 130.699 24.2436 131.018 24.1802C132.045 24.1139 133.064 23.961 134.065 23.7233C134.369 23.5709 134.522 23.7233 134.674 23.7233C135.588 24.0279 136.654 24.1802 137.111 22.5047C137.568 20.8291 136.502 21.286 136.35 21.4384C136.197 21.5907 136.045 21.4384 136.045 21.286C136.197 20.8291 135.893 20.9814 135.74 20.8291C135.282 20.9044 134.857 21.1169 134.522 21.4384C134.39 21.5383 134.23 21.5918 134.065 21.5907C133.455 21.286 131.627 21.743 131.171 20.6767C131.042 19.0347 130.788 17.4051 130.409 15.8023C130.409 15.65 130.257 15.3453 130.409 15.193C130.866 14.4314 132.084 15.193 132.846 15.193C133.085 15.208 133.323 15.1596 133.538 15.0525C133.752 14.9455 133.933 14.7838 134.065 14.5837C134.217 14.279 134.369 14.4314 134.522 14.4314C134.674 14.4314 134.522 14.1267 134.522 13.9744C134.522 13.8221 134.674 13.9744 134.826 13.8221C134.979 13.6697 134.826 13.3651 134.826 13.3651C134.979 13.0604 135.588 13.3651 135.283 12.4511C135.215 12.2398 135.208 12.0137 135.261 11.7983C135.315 11.5829 135.428 11.3869 135.588 11.2325C135.909 10.8835 136.147 10.4666 136.284 10.0128C136.422 9.55906 136.455 9.08015 136.382 8.61171C136.309 8.14327 136.131 7.69737 135.862 7.30719C135.592 6.917 135.238 6.59258 134.826 6.35807C132.237 4.2255 129.647 4.37783 127.972 6.20574C127.417 6.93588 127.068 7.80135 126.96 8.71216C126.853 9.62296 126.992 10.5458 127.362 11.3848C127.424 11.7265 127.367 12.0788 127.2 12.3835C127.034 12.6882 126.769 12.9271 126.448 13.0604C125.598 13.4862 124.825 14.0527 124.164 14.736C124.223 11.9333 125.107 9.21031 126.705 6.90741C128.304 4.60451 130.546 2.82392 133.151 1.78828C133.323 2.11233 133.588 2.37753 133.912 2.54991C133.303 3.00689 132.084 4.07317 132.084 4.07317H132.389C132.505 4.08927 132.612 4.14278 132.694 4.2255C132.694 4.2255 133.76 3.31154 134.369 2.85457C134.792 3.16573 135.253 3.42168 135.74 3.6162C135.436 4.07318 134.826 5.29179 134.826 5.29179C134.909 5.37451 135.016 5.42801 135.131 5.44411L135.283 5.59644C135.619 5.00327 135.924 4.39315 136.197 3.76852C136.792 3.9441 137.406 4.0464 138.025 4.07317V6.5104C137.463 6.52893 136.9 6.47777 136.35 6.35807H136.045L136.197 6.5104C136.35 6.66272 136.35 6.81505 136.502 6.96737H137.873V11.3848H138.482V10.3186C139.396 10.3186 140.158 10.1662 141.072 10.1662L141.833 9.40459H141.376C140.519 9.5269 139.653 9.57785 138.787 9.55692H138.33V6.66272C139.462 6.66062 140.589 6.50693 141.681 6.20574C141.986 6.96737 142.595 8.79529 142.595 8.79529L143.204 8.64296C143.204 8.64296 142.595 6.81505 142.29 6.20574C143.229 5.91693 144.145 5.56057 145.032 5.13946L146.86 7.88133C146.403 8.03366 145.642 8.33831 145.642 8.33831C146.002 8.33704 146.362 8.38836 146.708 8.49064C146.79 8.40791 146.897 8.35441 147.012 8.33831C147.039 8.49775 147.09 8.65201 147.165 8.79529L147.926 9.09994L147.774 8.94762C147.646 8.70511 147.544 8.44983 147.469 8.18599C148.383 7.72901 149.145 7.27203 149.907 6.81505C151.414 9.1241 152.209 11.826 152.192 14.5837C152.49 16.892 152.168 19.2381 151.257 21.3802C150.347 23.5223 148.882 25.3828 147.012 26.7698Z" fill="white"/>
<path d="M122.183 4.53015L121.878 4.68247C120.964 5.4441 118.984 7.42434 119.289 9.70924V9.86157L119.441 10.3185L119.746 10.0139C121.118 8.61125 121.977 6.78636 122.183 4.8348L122.335 4.22549L122.183 4.53015Z" fill="white"/>
<path d="M118.223 8.49065L118.07 8.7953C117.779 9.46914 117.624 10.1939 117.613 10.9279C117.312 12.7268 117.692 14.5735 118.68 16.107L118.832 16.2593L118.984 16.4116L119.137 15.4977C119.32 13.2451 119.113 10.9779 118.527 8.7953L118.375 8.33832L118.223 8.49065Z" fill="white"/>
<path d="M116.699 14.4314V14.7513C116.517 16.1083 116.703 17.4894 117.239 18.7493C117.775 20.0092 118.641 21.1013 119.746 21.9106L120.05 22.2152V21.7583C119.595 19.1962 118.609 16.7577 117.156 14.5989L116.851 14.1419L116.699 14.4314Z" fill="white"/>
<path d="M117.309 21.1337V21.4384C117.635 22.9103 118.32 24.2787 119.304 25.4215C120.287 26.5644 121.538 27.4462 122.945 27.9884L123.402 28.1407L123.249 27.6837C121.874 25.1585 120.01 22.932 117.766 21.1337L117.309 20.829V21.1337Z" fill="white"/>
<path d="M123.554 7.72901L123.249 7.88133C122.28 8.36829 121.459 9.10501 120.869 10.0154C120.28 10.9259 119.945 11.977 119.898 13.0604V13.5174L120.202 13.2128C121.679 11.7476 122.822 9.98103 123.554 8.03366L123.706 7.42435L123.554 7.72901Z" fill="white"/>
<path d="M122.183 12.4511L122.031 12.6034C121.291 13.2444 120.703 14.0412 120.308 14.9367C119.913 15.8322 119.721 16.8041 119.746 17.7825C119.775 18.2035 119.878 18.6161 120.051 19.0011L120.203 19.4581L120.508 19.1535C121.666 17.2525 122.394 15.1207 122.64 12.9081V12.4511H122.183Z" fill="white"/>
<path d="M122.183 16.8686L122.031 17.0209C121.102 18.2456 120.619 19.7499 120.66 21.2861C120.658 22.3221 120.977 23.3332 121.574 24.1803L121.726 24.4849L121.878 24.1803C122.447 22.4625 122.705 20.6571 122.64 18.8488C122.64 18.0872 122.488 17.4779 122.488 17.1732L122.335 16.7163L122.183 16.8686Z" fill="white"/>
<path d="M123.402 21.5907V21.743C123.102 22.6262 122.948 23.5522 122.945 24.4849C122.93 25.4083 123.162 26.3189 123.617 27.1224C124.073 27.9259 124.735 28.593 125.535 29.0547L125.839 29.207V28.5977C125.595 26.1929 124.87 23.8618 123.707 21.743L123.402 21.4384V21.5907Z" fill="white"/>
<path d="M120.05 27.6838L120.202 27.8361C121.421 29.9687 123.554 32.7105 127.514 31.9489H127.819L127.666 31.6442C125.548 29.7703 123.056 28.3684 120.355 27.5314L119.898 27.3791L120.05 27.6838Z" fill="white"/>
<path d="M126.037 33.0304L125.428 33.1827L126.037 33.4874C128.38 34.5323 130.996 34.7992 133.501 34.249C134.112 33.9845 134.678 33.6246 135.177 33.1827C138.375 33.4874 141.422 36.2293 143.25 38.3618L143.402 38.5141H143.555C143.707 38.5141 144.012 38.2095 144.164 38.0572L144.316 37.9048L144.164 37.7525C142.857 36.0835 141.191 34.73 139.289 33.792C135.104 31.9674 130.404 31.6973 126.037 33.0304Z" fill="white"/>
<path d="M126.143 26.3128V26.4651C126.448 28.9024 127.514 31.9489 131.475 31.6442H131.779V31.3396C131.475 30.2733 127.819 27.0744 126.6 26.1605L126.143 26.0082V26.3128Z" fill="white"/>
<path d="M154.476 4.37783L154.628 4.98713C154.834 6.9387 155.693 8.76358 157.066 10.1662L157.37 10.4709L157.523 10.0139V9.86158C157.827 7.57668 155.847 5.59644 154.933 4.83481L154.628 4.68248L154.476 4.37783Z" fill="white"/>
<path d="M158.741 8.18599L158.589 8.64296C157.928 10.8116 157.721 13.0931 157.98 15.3453L158.132 16.2593L158.284 16.107L158.437 15.9546C158.966 15.2137 159.335 14.3701 159.519 13.478C159.702 12.586 159.697 11.6654 159.503 10.7755C159.351 9.70925 159.046 8.94762 159.046 8.64296L158.894 8.33831L158.741 8.18599Z" fill="white"/>
<path d="M160.265 14.1267L159.96 14.5837C158.482 16.7292 157.494 19.1733 157.066 21.743V22.2L157.371 21.8953C160.417 19.9151 160.417 16.2593 160.417 14.736V14.4314L160.265 14.1267Z" fill="white"/>
<path d="M159.808 20.8443L159.351 21.1489C157.031 22.8685 155.152 25.1132 153.867 27.699L153.715 28.156L154.172 28.0036C155.549 27.4146 156.773 26.518 157.75 25.3826C158.727 24.2472 159.431 22.9032 159.808 21.4536V20.8443Z" fill="white"/>
<path d="M153.456 7.57669L153.608 8.186C154.281 10.1713 155.372 11.9893 156.807 13.5174L157.111 13.8221V13.3651C157.264 11.2325 156.197 9.55693 153.913 8.03367L153.608 7.88134L153.456 7.57669Z" fill="white"/>
<path d="M154.629 12.2988V12.7558C154.875 14.9684 155.603 17.1002 156.761 19.0011L157.066 19.3058L157.218 18.8488C157.374 18.4581 157.476 18.0482 157.523 17.6302C157.435 15.679 156.62 13.8313 155.238 12.4511L155.086 12.2988H154.629Z" fill="white"/>
<path d="M154.628 16.5639L154.476 17.0209C154.343 17.5689 154.292 18.1335 154.324 18.6965C154.259 20.5048 154.517 22.3101 155.085 24.0279L155.238 24.3326L155.39 24.0279C155.986 23.1808 156.306 22.1697 156.304 21.1337C156.272 19.6088 155.796 18.1264 154.933 16.8686L154.781 16.7163L154.628 16.5639Z" fill="white"/>
<path d="M153.562 21.2861L153.257 21.5907C152.073 23.7003 151.346 26.036 151.125 28.4454V29.0547L151.429 28.9024C152.229 28.4407 152.891 27.7736 153.346 26.9701C153.802 26.1666 154.034 25.256 154.019 24.3326C154.016 23.3999 153.862 22.4739 153.562 21.5907V21.2861Z" fill="white"/>
<path d="M157.066 27.5314L156.609 27.6837C153.923 28.5571 151.438 29.955 149.297 31.7966L149.145 32.1012H149.449C153.41 32.8628 155.542 30.121 156.761 27.9884L156.913 27.8361L157.066 27.5314Z" fill="white"/>
<path d="M137.872 33.7768C135.971 34.7147 134.305 36.0683 132.998 37.7373L132.845 37.8896L132.998 38.0419C133.15 38.1943 133.455 38.3466 133.607 38.4989H133.759L133.912 38.3466C135.74 36.214 138.634 33.4721 141.985 33.1675C142.416 33.6917 143.003 34.0651 143.661 34.2338C146.166 34.7894 148.783 34.5223 151.125 33.4722L151.734 33.1675L151.125 33.0152C145.032 31.4919 140.462 32.4059 137.872 33.7768Z" fill="white"/>
<path d="M150.972 26.1605L150.516 26.3128C149.297 27.2268 145.489 30.2733 145.336 31.4919V31.7966H145.641C149.602 32.1012 150.668 29.0547 150.972 26.6175V26.1605Z" fill="white"/>
<path d="M48.1526 1.63595H53.1794V6.20574H48.1526V1.63595ZM48.6096 11.5372H52.9204V34.0814H48.6553L48.6096 11.5372Z" fill="white"/>
<path d="M16.362 11.5372H20.6272V34.0814H16.5144V30.7303H16.362C15.5567 32.0411 14.4054 33.1045 13.0348 33.8032C11.6641 34.502 10.1273 34.8091 8.59337 34.6908C3.87126 34.6908 1.12939 31.0349 1.12939 26.6175V11.5372H5.39454V24.9419C5.39454 28.9024 6.3085 31.7966 10.4213 31.7966C11.4824 31.8244 12.5277 31.5348 13.4233 30.9649C14.3188 30.395 15.0238 29.5707 15.4481 28.5977C16.0073 26.8737 16.3152 25.0781 16.362 23.2663V11.5372Z" fill="white"/>
<path d="M29.1113 14.8883C29.8049 13.6839 30.8038 12.6836 32.0072 11.9883C33.2107 11.293 34.5761 10.9272 35.966 10.9278C37.4893 10.9278 44.4963 11.3848 44.4963 18.5442V34.0814H40.2311V19.9151C40.2311 16.2593 38.7079 14.1267 35.052 14.1267C34.2897 14.1198 33.5336 14.2644 32.8276 14.552C32.1216 14.8397 31.4797 15.2646 30.9392 15.8023C30.3299 16.4116 29.1113 17.4779 29.1113 21.8953V34.2338H24.8462V11.7047H28.959V14.9036L29.1113 14.8883Z" fill="white"/>
<path d="M70.6963 18.8488C70.544 16.107 69.173 14.1267 66.1265 14.1267C62.0137 14.1267 60.4904 17.6302 60.4904 22.9616C60.4904 28.2931 62.0137 31.7966 66.1265 31.7966C68.8684 31.7966 70.6963 29.9686 70.8486 26.7698H75.1138C74.8091 31.7966 71.001 34.8431 65.9742 34.8431C58.8149 34.8431 55.9207 29.8163 55.9207 23.114C55.9207 16.4116 59.2718 11.0802 66.2788 11.0802C67.3632 11.0228 68.4479 11.1839 69.4688 11.5539C70.4896 11.924 71.4257 12.4954 72.2214 13.2342C73.0171 13.9731 73.6562 14.8643 74.1007 15.855C74.5452 16.8457 74.7861 17.9156 74.8091 19.0012H70.6963V18.8488Z" fill="white"/>
<path d="M81.5119 23.5709C81.2073 27.5314 82.8828 31.4919 87.148 31.4919C90.4992 31.4919 92.1748 30.2733 92.6317 26.9221H97.0949C96.4856 31.9489 92.5251 34.5384 87.1937 34.5384C80.0343 34.5384 77.1401 29.5117 77.1401 22.8093C77.1401 16.107 80.4913 10.7755 87.4983 10.7755C94.2007 10.9279 97.3995 15.193 97.3995 21.4384V23.5709H81.5119ZM92.7841 20.6767C92.9364 16.8686 91.1085 13.9744 86.9956 13.9744C83.4921 13.9744 81.3596 17.0209 81.3596 20.6767H92.7841Z" fill="white"/>
<path d="M102.076 34.0814V14.5837H98.2678V11.7047H102.076V6.83027C102.228 1.95583 105.884 0.584896 109.083 0.584896C110.108 0.662506 111.127 0.815242 112.129 1.04187V4.54538C111.368 4.54538 110.759 4.39305 109.997 4.39305C107.56 4.39305 106.189 5.00236 106.341 7.43958V11.5524H111.52V14.4466H106.341V33.9443H102.076V34.0814Z" fill="white"/>
<path d="M158.741 49.6187H1.08325V50.5327H158.741V49.6187Z" fill="white"/>
<path d="M3.67324 80.2515V67.6085H0.779053V66.0852H3.67324V63.0387C3.67324 60.6014 4.73953 59.5352 7.17675 59.5352C7.74626 59.5625 8.30967 59.6649 8.85235 59.8398V61.2107C8.5477 61.2107 8.0907 61.0584 7.78605 61.0584C5.50115 61.0584 5.34883 62.277 5.50115 64.2573V66.0852H8.74571V67.6085H5.54685V80.2515H3.67324Z" fill="white"/>
<path d="M22.5617 73.2293C22.5617 77.0375 20.4291 80.8456 15.8593 80.8456C11.2895 80.8456 9.15698 77.0375 9.15698 73.2293C9.15698 69.4211 11.2895 65.613 15.8593 65.613C20.4291 65.613 22.5617 69.4211 22.5617 73.2293ZM15.8593 67.1363C12.3558 67.1363 11.1372 70.4874 11.1372 73.077C11.1372 75.6665 12.5082 79.0177 15.8593 79.0177C19.2105 79.0177 20.5815 75.6665 20.5815 73.077C20.5815 70.4874 19.3628 67.1363 15.8593 67.1363Z" fill="white"/>
<path d="M26.6741 80.2515H24.9985V69.284C24.9985 68.2178 24.8462 66.9992 24.8462 66.0852H26.6741L26.8264 68.2178C27.0741 67.5362 27.5027 66.9351 28.0663 66.4788C28.6299 66.0226 29.3071 65.7285 30.0253 65.6282H31.7009V67.3038C31.3962 67.3038 30.9392 67.1515 30.6346 67.1515C28.045 67.1515 26.8264 68.9794 26.6741 71.7213V80.2515Z" fill="white"/>
<path d="M39.9268 73.534C39.9268 76.5805 41.2977 79.17 44.8012 79.17C45.7667 79.1663 46.7017 78.8316 47.4502 78.2217C48.1987 77.6118 48.7154 76.7637 48.914 75.8188H50.742C50.4824 77.2978 49.6858 78.6288 48.5051 79.5566C47.3243 80.4843 45.8426 80.9433 44.3442 80.8456C40.0791 80.8456 38.0989 77.1898 38.0989 73.2293C38.0989 69.2688 40.2314 65.613 44.4966 65.613C49.2187 65.613 51.0466 69.1165 51.0466 73.534H39.9268ZM49.0664 72.0107C48.914 69.2688 47.3908 67.1363 44.4966 67.1363C41.6024 67.1363 40.2314 69.4211 40.0791 72.0107H49.0664Z" fill="white"/>
<path d="M53.1787 66.07L58.2055 77.9514L62.9276 66.07H64.7555L59.1195 80.2363H57.1392L51.3508 66.07H53.1787Z" fill="white"/>
<path d="M66.8882 73.534C66.8882 76.5805 68.2591 79.17 71.7627 79.17C72.7281 79.1663 73.6631 78.8316 74.4116 78.2217C75.1601 77.6118 75.6768 76.7637 75.8755 75.8188H77.7034C77.4438 77.2978 76.6472 78.6288 75.4665 79.5566C74.2858 80.4843 72.8041 80.9433 71.3057 80.8456C67.0406 80.8456 65.0603 77.1898 65.0603 73.2293C65.0603 69.2688 67.1929 65.613 71.458 65.613C76.1801 65.613 78.008 69.1165 78.008 73.534H66.8882ZM76.1801 72.0107C76.0278 69.2688 74.5045 67.1363 71.6103 67.1363C68.7161 67.1363 67.3452 69.4211 67.1929 72.0107H76.1801Z" fill="white"/>
<path d="M82.2732 80.2515H80.5976V69.284C80.5976 68.2178 80.4453 66.9992 80.4453 66.0852H82.2732L82.4255 68.2178C82.6732 67.5362 83.1018 66.9351 83.6654 66.4788C84.229 66.0226 84.9063 65.7285 85.6244 65.6282H87.3V67.3038C86.9953 67.3038 86.5383 67.1515 86.2337 67.1515C83.6441 67.1515 82.4255 68.9794 82.2732 71.7213V80.2515Z" fill="white"/>
<path d="M90.9558 66.07L95.6779 77.9514L100.552 66.07H102.38L94.4593 85.7201H92.6314L94.764 80.2363L88.8232 66.07H90.9558Z" fill="white"/>
<path d="M118.527 70.4874C118.375 68.3549 117.004 67.2886 114.566 67.2886C112.129 67.2886 110.301 70.0305 110.301 73.2293C110.301 76.4282 111.977 79.17 114.566 79.17C115.047 79.2138 115.532 79.1616 115.992 79.0162C116.453 78.8709 116.88 78.6355 117.248 78.3236C117.617 78.0118 117.92 77.6297 118.139 77.1997C118.359 76.7697 118.491 76.3003 118.527 75.8189H120.355C120.335 76.5056 120.174 77.1811 119.884 77.8036C119.593 78.4262 119.178 78.9829 118.665 79.4393C118.151 79.8958 117.55 80.2425 116.897 80.4581C116.245 80.6738 115.556 80.7538 114.871 80.6933C110.606 80.6933 108.626 77.0375 108.626 73.077C108.626 69.1165 110.758 65.4607 115.023 65.4607C116.376 65.3641 117.711 65.8064 118.739 66.6911C119.766 67.5758 120.402 68.831 120.507 70.1828H118.527V70.4874Z" fill="white"/>
<path d="M124.513 68.2025C124.95 67.3809 125.612 66.7008 126.421 66.2421C127.231 65.7834 128.154 65.5651 129.083 65.613C133.805 65.613 134.11 69.7258 134.11 71.4014V80.2515H132.434V71.112C132.494 70.5905 132.438 70.0623 132.27 69.565C132.102 69.0677 131.826 68.6137 131.463 68.2354C131.099 67.857 130.656 67.5637 130.166 67.3763C129.675 67.1889 129.15 67.1122 128.626 67.1515C125.884 67.1515 124.513 69.4364 124.513 72.0259V80.2515H122.838V59.8246H124.513V68.2025Z" fill="white"/>
<path d="M138.634 61.9724H136.7V59.8398H138.68L138.634 61.9724ZM138.634 80.2516H136.959V66.0852H138.634V80.2516Z" fill="white"/>
<path d="M143.661 59.8246H141.985V80.2363H143.661V59.8246Z" fill="white"/>
<path d="M157.066 78.2561C156.504 79.0299 155.773 79.6653 154.928 80.114C154.083 80.5627 153.147 80.8129 152.191 80.8456C147.926 80.8456 146.403 76.8851 146.403 73.2293C146.403 69.5735 148.079 65.7653 152.191 65.7653C153.157 65.7471 154.111 65.9753 154.964 66.4284C155.817 66.8815 156.54 67.5445 157.066 68.3549V59.9769H158.742V77.205C158.742 78.2713 158.894 79.4899 158.894 80.4039H157.066V78.2561ZM152.344 67.1363C149.145 67.1363 148.079 70.1828 148.079 72.9247C148.079 75.6665 148.84 79.17 152.039 79.17C155.695 79.17 156.914 76.1235 156.914 72.7723C156.914 69.8781 155.695 67.1363 152.344 67.1363Z" fill="white"/>
</svg>
